<?xml version="1.0" encoding="UTF-8" standalone="no"?> <!-- Created with Vectornator for iOS (http://vectornator.io/) --><!DOCTYPE svg PUBLIC "-//W3C//DTD SVG 1.1//EN" "http://www.w3.org/Graphics/SVG/1.1/DTD/svg11.dtd">
<svg height="100%" style="fill-rule:evenodd;clip-rule:evenodd;stroke-linecap:round;stroke-linejoin:round;" xmlns:xlink="http://www.w3.org/1999/xlink" xmlns="http://www.w3.org/2000/svg" xml:space="preserve" width="100%" xmlns:vectornator="http://vectornator.io" version="1.1" viewBox="0 0 1000 279">
<metadata>
<vectornator:setting key="DynamicGuides" value="0"/>
<vectornator:setting key="SnapToPoints" value="0"/>
<vectornator:setting key="OutlineMode" value="0"/>
<vectornator:setting key="RulersVisible" value="1"/>
<vectornator:setting key="CMYKEnabledKey" value="0"/>
<vectornator:setting key="SnapToEdges" value="0"/>
<vectornator:setting key="DisplayWhiteBackground" value="0"/>
<vectornator:setting key="ShowGrid" value="0"/>
<vectornator:setting key="SnapToGuides" value="1"/>
<vectornator:setting key="GridSpacing" value="1"/>
<vectornator:setting key="IsolateActiveLayer" value="0"/>
<vectornator:setting key="Units" value="Pixels"/>
<vectornator:setting key="SnapToGrid" value="0"/>
</metadata>
<defs>
<path d="M140.892+5.82217L140.892+5.82217C214.024+5.82217+273.308+65.1071+273.308+138.239L273.308+138.239C273.308+211.37+214.024+270.655+140.892+270.655L140.892+270.655C67.7603+270.655+8.47543+211.37+8.47543+138.239L8.47543+138.239C8.47543+65.1071+67.7603+5.82217+140.892+5.82217Z" id="Mask"/>
<linearGradient y1="206.971" id="LinearGradient" x1="1022.15" y2="383.564" x2="304.844" gradientUnits="userSpaceOnUse" gradientTransform="matrix(1 0 0 1 -51.0738 -152.83)">
<stop stop-color="#5deded" offset="0"/>
<stop stop-color="#63daee" offset="0.114688"/>
<stop stop-color="#74a0f0" offset="0.221328"/>
<stop stop-color="#9e96f1" offset="0.336016"/>
<stop stop-color="#c48df3" offset="0.438632"/>
<stop stop-color="#d494e0" offset="0.511066"/>
<stop stop-color="#e39bd0" offset="0.573441"/>
<stop stop-color="#f6a4ba" offset="0.655936"/>
<stop stop-color="#f7c8b8" offset="0.738431"/>
<stop stop-color="#f7deb7" offset="0.78672"/>
<stop stop-color="#f8f3b6" offset="0.83501"/>
<stop stop-color="#8bf777" offset="0.911469"/>
<stop stop-color="#15fc34" offset="0.993964"/>
</linearGradient>
<linearGradient y1="206.971" id="LinearGradient_2" x1="1022.15" y2="383.564" x2="304.844" gradientUnits="userSpaceOnUse" gradientTransform="matrix(1 0 0 1 -51.0738 -152.83)">
<stop stop-color="#5deded" offset="0"/>
<stop stop-color="#63daee" offset="0.114688"/>
<stop stop-color="#74a0f0" offset="0.221328"/>
<stop stop-color="#9e96f1" offset="0.336016"/>
<stop stop-color="#c48df3" offset="0.438632"/>
<stop stop-color="#d494e0" offset="0.511066"/>
<stop stop-color="#e39bd0" offset="0.573441"/>
<stop stop-color="#f6a4ba" offset="0.655936"/>
<stop stop-color="#f7c8b8" offset="0.738431"/>
<stop stop-color="#f7deb7" offset="0.78672"/>
<stop stop-color="#f8f3b6" offset="0.83501"/>
<stop stop-color="#8bf777" offset="0.911469"/>
<stop stop-color="#15fc34" offset="0.993964"/>
</linearGradient>
<linearGradient y1="206.971" id="LinearGradient_3" x1="1022.15" y2="383.564" x2="304.844" gradientUnits="userSpaceOnUse" gradientTransform="matrix(1 0 0 1 -51.0738 -152.83)">
<stop stop-color="#5deded" offset="0"/>
<stop stop-color="#63daee" offset="0.114688"/>
<stop stop-color="#74a0f0" offset="0.221328"/>
<stop stop-color="#9e96f1" offset="0.336016"/>
<stop stop-color="#c48df3" offset="0.438632"/>
<stop stop-color="#d494e0" offset="0.511066"/>
<stop stop-color="#e39bd0" offset="0.573441"/>
<stop stop-color="#f6a4ba" offset="0.655936"/>
<stop stop-color="#f7c8b8" offset="0.738431"/>
<stop stop-color="#f7deb7" offset="0.78672"/>
<stop stop-color="#f8f3b6" offset="0.83501"/>
<stop stop-color="#8bf777" offset="0.911469"/>
<stop stop-color="#15fc34" offset="0.993964"/>
</linearGradient>
<linearGradient y1="206.971" id="LinearGradient_4" x1="1022.15" y2="383.564" x2="304.844" gradientUnits="userSpaceOnUse" gradientTransform="matrix(1 0 0 1 -51.0738 -152.83)">
<stop stop-color="#5deded" offset="0"/>
<stop stop-color="#63daee" offset="0.114688"/>
<stop stop-color="#74a0f0" offset="0.221328"/>
<stop stop-color="#9e96f1" offset="0.336016"/>
<stop stop-color="#c48df3" offset="0.438632"/>
<stop stop-color="#d494e0" offset="0.511066"/>
<stop stop-color="#e39bd0" offset="0.573441"/>
<stop stop-color="#f6a4ba" offset="0.655936"/>
<stop stop-color="#f7c8b8" offset="0.738431"/>
<stop stop-color="#f7deb7" offset="0.78672"/>
<stop stop-color="#f8f3b6" offset="0.83501"/>
<stop stop-color="#8bf777" offset="0.911469"/>
<stop stop-color="#15fc34" offset="0.993964"/>
</linearGradient>
<linearGradient y1="206.971" id="LinearGradient_5" x1="1022.15" y2="383.564" x2="304.844" gradientUnits="userSpaceOnUse" gradientTransform="matrix(1 0 0 1 -51.0738 -152.83)">
<stop stop-color="#5deded" offset="0"/>
<stop stop-color="#63daee" offset="0.114688"/>
<stop stop-color="#74a0f0" offset="0.221328"/>
<stop stop-color="#9e96f1" offset="0.336016"/>
<stop stop-color="#c48df3" offset="0.438632"/>
<stop stop-color="#d494e0" offset="0.511066"/>
<stop stop-color="#e39bd0" offset="0.573441"/>
<stop stop-color="#f6a4ba" offset="0.655936"/>
<stop stop-color="#f7c8b8" offset="0.738431"/>
<stop stop-color="#f7deb7" offset="0.78672"/>
<stop stop-color="#f8f3b6" offset="0.83501"/>
<stop stop-color="#8bf777" offset="0.911469"/>
<stop stop-color="#15fc34" offset="0.993964"/>
</linearGradient>
<linearGradient y1="206.971" id="LinearGradient_6" x1="1022.15" y2="383.564" x2="304.844" gradientUnits="userSpaceOnUse" gradientTransform="matrix(1 0 0 1 -51.0738 -152.83)">
<stop stop-color="#5deded" offset="0"/>
<stop stop-color="#63daee" offset="0.114688"/>
<stop stop-color="#74a0f0" offset="0.221328"/>
<stop stop-color="#9e96f1" offset="0.336016"/>
<stop stop-color="#c48df3" offset="0.438632"/>
<stop stop-color="#d494e0" offset="0.511066"/>
<stop stop-color="#e39bd0" offset="0.573441"/>
<stop stop-color="#f6a4ba" offset="0.655936"/>
<stop stop-color="#f7c8b8" offset="0.738431"/>
<stop stop-color="#f7deb7" offset="0.78672"/>
<stop stop-color="#f8f3b6" offset="0.83501"/>
<stop stop-color="#8bf777" offset="0.911469"/>
<stop stop-color="#15fc34" offset="0.993964"/>
</linearGradient>
<linearGradient y1="206.971" id="LinearGradient_7" x1="1022.15" y2="383.564" x2="304.844" gradientUnits="userSpaceOnUse" gradientTransform="matrix(1 0 0 1 -51.0738 -152.83)">
<stop stop-color="#5deded" offset="0"/>
<stop stop-color="#63daee" offset="0.114688"/>
<stop stop-color="#74a0f0" offset="0.221328"/>
<stop stop-color="#9e96f1" offset="0.336016"/>
<stop stop-color="#c48df3" offset="0.438632"/>
<stop stop-color="#d494e0" offset="0.511066"/>
<stop stop-color="#e39bd0" offset="0.573441"/>
<stop stop-color="#f6a4ba" offset="0.655936"/>
<stop stop-color="#f7c8b8" offset="0.738431"/>
<stop stop-color="#f7deb7" offset="0.78672"/>
<stop stop-color="#f8f3b6" offset="0.83501"/>
<stop stop-color="#8bf777" offset="0.911469"/>
<stop stop-color="#15fc34" offset="0.993964"/>
</linearGradient>
<linearGradient y1="906.777" id="LinearGradient_8" x1="810.596" y2="906.777" x2="831.769" gradientUnits="userSpaceOnUse" gradientTransform="matrix(1 0 0 0.876471 0 97.0155)">
<stop stop-color="#a21212" offset="0"/>
<stop stop-color="#8b5f0f" offset="0.221328"/>
<stop stop-color="#3b720c" offset="0.438632"/>
<stop stop-color="#095b45" offset="0.655936"/>
<stop stop-color="#070c49" offset="0.83501"/>
<stop stop-color="#ea03cb" offset="0.993964"/>
</linearGradient>
<linearGradient y1="-48.3192" id="LinearGradient_9" x1="471.83" y2="-48.3192" x2="472.491" gradientUnits="userSpaceOnUse" gradientTransform="matrix(1 0 0 1 0 0)">
<stop stop-color="#a21212" offset="0"/>
<stop stop-color="#8b5f0f" offset="0.221328"/>
<stop stop-color="#3b720c" offset="0.438632"/>
<stop stop-color="#095b45" offset="0.655936"/>
<stop stop-color="#070c49" offset="0.83501"/>
<stop stop-color="#ea03cb" offset="0.993964"/>
</linearGradient>
<linearGradient y1="501.15" id="LinearGradient_10" x1="584.566" y2="501.15" x2="584.566" gradientUnits="userSpaceOnUse" gradientTransform="matrix(1 0 0 1 0 0)">
<stop stop-color="#a21212" offset="0"/>
<stop stop-color="#8b5f0f" offset="0.221328"/>
<stop stop-color="#3b720c" offset="0.438632"/>
<stop stop-color="#095b45" offset="0.655936"/>
<stop stop-color="#070c49" offset="0.83501"/>
<stop stop-color="#ea03cb" offset="0.993964"/>
</linearGradient>
</defs>
<g id="Layer 2" vectornator:layerName="Layer 2" opacity="0.51341">
<g opacity="1" vectornator:mask="#Mask">
<use stroke="none" xlink:href="#Mask" fill-opacity="0" fill="#000000"/>
<clipPath id="ClipPath">
<use xlink:href="#Mask" fill="none" overflow="visible"/>
</clipPath>
<g clip-path="url(#ClipPath)">
<path d="M162.412+168.869L287.445+50.4322L293.1+175.78" opacity="1" fill="#ffc600"/>
<path stroke="#ff7373" stroke-opacity="0" stroke-width="0.99" d="M127.174+175.154L290.282+177.699L219.598+268.759" fill="#19ff00" stroke-linecap="round" opacity="1" stroke-linejoin="round"/>
<path stroke="#ff7373" stroke-opacity="0" stroke-width="0.99" d="M106.515+153.578L103.779+287.553L213.052+267.077" fill="#00eeff" stroke-linecap="round" opacity="1" stroke-linejoin="round"/>
<path stroke="#ff7373" stroke-opacity="0" stroke-width="0.99" d="M106.971+126.624L11.2756+221.043L100.931+281.963" fill="#0051ff" stroke-linecap="round" opacity="1" stroke-linejoin="round"/>
<path stroke="#ff7373" stroke-opacity="0" stroke-width="0.99" d="M125.29+105.783L-19.5407+105.602L13.0324+215.693" fill="#9b00ff" stroke-linecap="round" opacity="1" stroke-linejoin="round"/>
<path stroke="#ff7373" stroke-opacity="0" stroke-width="0.99" d="M153.704+102.896L45.817+2.56543L-6.42404+102.942" fill="#ff00ec" stroke-linecap="round" opacity="1" stroke-linejoin="round"/>
<path stroke="#ff7373" stroke-opacity="0" stroke-width="0.99" d="M175.867+122.365C175.867+122.365+174.389-15.9153+174.295-19.1842C174.201-22.4531+66.1176+12.1186+66.1176+12.1186" fill="#ff0060" stroke-linecap="round" opacity="1" stroke-linejoin="round"/>
<path stroke="#ff7373" stroke-opacity="0" stroke-width="0.99" d="M178.245+149.586L288.337+42.8092L180.018-12.129" fill="#ff0000" stroke-linecap="round" opacity="1" stroke-linejoin="round"/>
</g>
<use stroke-linecap="round" stroke="#ff7373" xlink:href="#Mask" stroke-width="0.99" fill="none" stroke-linejoin="round"/>
</g>
</g>
<g id="Layer 1" vectornator:layerName="Layer 1">
<path d="M216.038+137.047" fill="#000000" opacity="1" vectornator:blendMode="Difference"/>
<path d="M141.347+0.922673C116.473+0.922673+93.1111+7.4911+72.9092+18.9802C72.1643+19.2511+71.4872+19.6799+70.9229+20.2442C40.7893+38.0761+17.9465+66.9456+8.08262+101.323C7.17974+102.451+6.7283+103.851+6.81859+105.295C4.01967+116.243+2.66536+127.777+2.66536+139.605C2.66536+163.96+8.96293+186.87+20.0006+206.779C20.2037+208.268+20.9712+209.645+22.1675+210.571C46.3872+251.11+90.741+278.287+141.347+278.287C166.244+278.287+189.561+271.56+209.785+260.048C209.966+260.003+210.147+259.936+210.327+259.868C251.95+235.919+280.029+191.023+280.029+139.605C280.029+114.708+273.325+91.3684+261.791+71.1665C261.746+71.0537+261.678+70.9182+261.611+70.8054C261.588+70.7602+261.633+70.6699+261.611+70.6248C261.407+70.2411+261.159+69.8799+260.888+69.5413C242.898+39.0015+213.623+15.933+178.726+6.15936C178.207+5.8885+177.666+5.70792+177.101+5.61763C165.702+2.57042+153.717+0.922673+141.347+0.922673ZM141.347+12.4795C151.301+12.4795+160.962+13.5855+170.239+15.7299L170.239+111.254L84.6466+25.6615C101.711+17.1519+120.965+12.4795+141.347+12.4795ZM181.796+19.1608C209.989+28.6184+233.847+47.6466+249.331+72.4305L181.796+139.966L181.796+19.1608ZM74.1732+31.6205L141.708+99.1557L20.9035+99.1557C30.3611+70.9408+49.3667+47.0823+74.1732+31.6205ZM255.11+82.9039C263.642+99.9683+268.472+119.2+268.472+139.605C268.472+149.559+267.366+159.22+265.222+168.497L169.517+168.497L179.268+158.565C179.742+158.204+180.171+157.775+180.532+157.301L255.11+82.9039ZM17.4725+110.713L112.997+110.713L102.885+121.005C102.614+121.231+102.388+121.457+102.162+121.728L27.5848+196.125C19.0977+179.105+14.2222+159.942+14.2222+139.605C14.2222+129.65+15.3282+119.99+17.4725+110.713ZM129.249+110.713L153.265+110.713L170.239+127.687L170.239+151.523L153.265+168.497L129.249+168.497L112.455+151.703L112.455+127.506L129.249+110.713ZM100.898+139.063L100.898+152.787C100.74+153.554+100.74+154.367+100.898+155.134L100.898+260.048C72.6383+250.568+48.8475+231.427+33.3632+206.598L100.898+139.063ZM112.455+167.955L121.303+176.803C121.823+177.864+122.635+178.744+123.651+179.331L124.012+179.331C124.08+179.399+124.125+179.444+124.193+179.512L198.048+253.548C180.984+262.057+161.73+266.73+141.347+266.73C131.393+266.73+121.732+265.624+112.455+263.479L112.455+167.955ZM140.806+180.053L154.529+180.053C155.297+180.211+156.109+180.211+156.877+180.053L261.791+180.053C252.333+208.268+233.328+232.127+208.521+247.589L140.806+180.053Z" opacity="1" fill="#000000"/>
</g>
<g id="Layer 3" vectornator:layerName="Layer 3">
<g opacity="1" vectornator:blendMode="Difference">
<path d="M273.105+178.695C281.713+178.695+289.85+176.577+297.517+172.34C305.183+168.103+311.169+162.219+315.473+154.686L338.271+177.686C333.967+185.218+328.049+191.069+320.516+195.239C312.984+199.408+304.914+201.493+296.306+201.493C289.716+201.493+283.831+200.417+278.653+198.265C273.475+196.113+268.666+193.288+264.228+189.791C259.789+186.294+255.552+182.394+251.517+178.09C247.482+173.786+243.313+169.482+239.009+165.178C243.582+169.482+248.827+172.811+254.745+175.164C260.663+177.518+266.783+178.695+273.105+178.695ZM255.149+170.02C247.079+166.388+240.623+160.907+235.78+153.577C230.938+146.246+228.517+138.143+228.517+129.266C228.517+123.213+229.694+117.497+232.048+112.117C234.402+106.737+237.563+102.029+241.53+97.994C245.498+93.959+250.139+90.7646+255.451+88.4108C260.764+86.057+266.447+84.8801+272.499+84.8801C279.897+84.8801+286.857+86.5614+293.381+89.9239C299.904+93.2865+305.318+97.9268+309.622+103.845L315.473+103.845C314.397+102.231+313.321+100.65+312.245+99.1037C311.169+97.5569+309.958+96.111+308.613+94.766C313.724+99.8771+318.97+104.988+324.35+110.099C329.73+115.21+334.37+120.792+338.271+126.845L332.622+126.845C329.797+123.886+327.107+121.229+324.551+118.875C321.996+116.522+319.34+114.504+316.582+112.823C313.825+111.142+310.832+109.864+307.604+108.99C304.376+108.115+300.61+107.678+296.306+107.678C290.119+107.678+284.302+108.821+278.855+111.108C273.407+113.394+268.632+116.555+264.53+120.59C260.428+124.625+257.2+129.367+254.846+134.814C252.492+140.261+251.315+146.078+251.315+152.265C251.315+158.183+252.593+164.102+255.149+170.02Z" opacity="1" fill="url(#LinearGradient)"/>
<path d="M382.595+80.6433L405.393+103.643L405.393+202.502L400.551+202.502L377.753+179.704L382.595+179.704L382.595+80.6433Z" opacity="1" fill="url(#LinearGradient_2)"/>
<path d="M514.682+85.6871L537.682+108.485L502.375+108.485L502.375+202.502L479.577+179.502L479.577+85.6871L514.682+85.6871ZM462.428+108.485L439.429+85.6871L474.533+85.6871L474.533+108.485L462.428+108.485Z" opacity="1" fill="url(#LinearGradient_3)"/>
<path d="M662.506+129.266C662.506+132.628+661.9+135.755+660.69+138.647C659.479+141.539+657.798+144.061+655.646+146.213C653.494+148.365+650.972+150.046+648.08+151.257C645.189+152.467+642.061+153.072+638.699+153.072L618.12+153.072C614.892+153.072+612.673+153.072+611.462+153.072C610.252+153.072+609.277+153.106+608.537+153.173C607.797+153.241+606.822+153.274+605.612+153.274C604.401+153.274+602.182+153.274+598.954+153.274L598.954+202.502L594.112+202.502L571.112+179.704L576.156+179.704L576.156+130.274L615.901+130.274C619.398+130.274+622.592+129.602+625.484+128.257C628.376+126.912+630.864+125.13+632.949+122.91C635.034+120.691+636.648+118.068+637.791+115.042C638.934+112.016+639.506+108.821+639.506+105.459C639.506+99.9443+637.959+95.035+634.866+90.731C635.269+91.1345+636.547+92.4122+638.699+94.5642C640.851+96.7163+643.137+98.9692+645.559+101.323C647.98+103.677+650.165+105.829+652.115+107.779C654.066+109.729+655.175+110.772+655.444+110.906L655.646+111.31C657.933+114.269+659.648+117.026+660.791+119.582C661.934+122.137+662.506+125.365+662.506+129.266ZM599.761+108.687L576.761+85.6871L614.892+85.6871C620.945+85.6871+625.753+87.7047+629.317+91.7397C632.882+95.7748+634.664+100.684+634.664+106.468C634.664+107.409+634.597+108.149+634.462+108.687L599.761+108.687Z" opacity="1" fill="url(#LinearGradient_4)"/>
<path d="M707.234+80.6433L730.032+103.643L730.032+202.502L725.19+202.502L702.392+179.704L707.234+179.704L707.234+80.6433Z" opacity="1" fill="url(#LinearGradient_5)"/>
<path d="M812.488+178.695C821.096+178.695+829.233+176.577+836.9+172.34C844.566+168.103+850.552+162.219+854.856+154.686L877.654+177.686C873.35+185.218+867.432+191.069+859.899+195.239C852.367+199.408+844.297+201.493+835.689+201.493C829.099+201.493+823.214+200.417+818.036+198.265C812.858+196.113+808.049+193.288+803.611+189.791C799.172+186.294+794.935+182.394+790.9+178.09C786.865+173.786+782.696+169.482+778.392+165.178C782.965+169.482+788.21+172.811+794.128+175.164C800.046+177.518+806.166+178.695+812.488+178.695ZM794.532+170.02C786.462+166.388+780.006+160.907+775.163+153.577C770.321+146.246+767.9+138.143+767.9+129.266C767.9+123.213+769.077+117.497+771.431+112.117C773.785+106.737+776.946+102.029+780.913+97.994C784.881+93.959+789.522+90.7646+794.834+88.4108C800.147+86.057+805.83+84.8801+811.882+84.8801C819.28+84.8801+826.24+86.5614+832.764+89.9239C839.287+93.2865+844.701+97.9268+849.005+103.845L854.856+103.845C853.78+102.231+852.704+100.65+851.628+99.1037C850.552+97.5569+849.341+96.111+847.996+94.766C853.107+99.8771+858.353+104.988+863.733+110.099C869.113+115.21+873.753+120.792+877.654+126.845L872.005+126.845C869.18+123.886+866.49+121.229+863.934+118.875C861.379+116.522+858.723+114.504+855.965+112.823C853.208+111.142+850.215+109.864+846.987+108.99C843.759+108.115+839.993+107.678+835.689+107.678C829.502+107.678+823.685+108.821+818.238+111.108C812.79+113.394+808.015+116.555+803.913+120.59C799.811+124.625+796.583+129.367+794.229+134.814C791.875+140.261+790.698+146.078+790.698+152.265C790.698+158.183+791.976+164.102+794.532+170.02Z" opacity="1" fill="url(#LinearGradient_6)"/>
<path d="M989.565+172.642C989.565+176.946+988.792+180.914+987.245+184.546C985.698+188.177+983.58+191.338+980.89+194.028C978.2+196.718+975.039+198.837+971.408+200.383C967.776+201.93+963.876+202.703+959.706+202.703C951.367+202.703+944.238+199.744+938.32+193.826L918.347+173.853C921.037+176.274+924.13+178.123+927.627+179.401C931.124+180.679+934.621+181.318+938.118+181.318C942.288+181.318+946.189+180.544+949.82+178.998C953.452+177.451+956.612+175.299+959.302+172.542C961.992+169.784+964.145+166.59+965.759+162.958C967.373+159.327+968.18+155.493+968.18+151.458C968.18+147.692+967.507+144.027+966.162+140.463C964.817+136.899+962.867+133.771+960.311+131.081L980.688+151.257C983.513+154.081+985.698+157.376+987.245+161.143C988.792+164.909+989.565+168.742+989.565+172.642ZM921.171+104.047C921.171+99.3391+922.819+95.3713+926.114+92.1432C929.409+88.9152+933.411+87.3012+938.118+87.3012C941.75+87.3012+945.045+88.3099+948.004+90.3274C950.963+92.345+953.048+95.1023+954.259+98.5993L959.302+98.5993C958.764+96.9853+958.126+95.4049+957.386+93.8581C956.646+92.3113+955.738+90.9327+954.662+89.7222L975.846+110.906L976.855+112.117C979.545+114.807+981.361+117.9+982.302+121.397L977.057+121.397L965.557+109.897C963.539+109.225+961.589+108.889+959.706+108.889C955.94+108.889+952.477+110.066+949.316+112.419C946.155+114.773+944.171+117.833+943.364+121.599C942.557+121.465+941.716+121.364+940.842+121.296C939.968+121.229+939.127+121.196+938.32+121.196C933.613+121.196+929.578+119.548+926.215+116.253C922.853+112.957+921.171+108.889+921.171+104.047ZM924.601+121.397C926.484+123.146+928.602+124.39+930.956+125.13C933.31+125.869+935.765+126.239+938.32+126.239C941.817+126.239+945.079+126.912+948.105+128.257C951.131+129.602+953.788+131.418+956.074+133.704C958.361+135.991+960.143+138.647+961.421+141.673C962.699+144.7+963.338+147.961+963.338+151.458C963.338+154.014+962.934+156.502+962.127+158.923L924.601+121.397ZM933.478+175.669C928.233+175.131+923.828+172.878+920.263+168.91C916.699+164.942+914.446+160.47+913.505+155.493L933.478+175.669Z" opacity="1" fill="url(#LinearGradient_7)"/>
</g>
<path d="M821.182+785.363L821.182+785.363C827.029+785.363+831.769+789.518+831.769+794.642L831.769+988.915C831.769+994.039+827.029+998.194+821.182+998.194L821.182+998.194C815.336+998.194+810.596+994.039+810.596+988.915L810.596+794.642C810.596+789.518+815.336+785.363+821.182+785.363Z" opacity="1" fill="url(#LinearGradient_8)"/>
<path d="M472.161-50.3042L472.161-50.3042C472.343-50.3042+472.491-50.1561+472.491-49.9734L472.491-46.6651C472.491-46.4824+472.343-46.3343+472.161-46.3343L472.161-46.3343C471.978-46.3343+471.83-46.4824+471.83-46.6651L471.83-49.9734C471.83-50.1561+471.978-50.3042+472.161-50.3042Z" opacity="1" fill="url(#LinearGradient_9)"/>
<path d="M584.566+501.15" opacity="1" fill="url(#LinearGradient_10)"/>
</g>
</svg>
