<?xml version="1.0" encoding="UTF-8" standalone="no"?> <!-- Created with Vectornator for iOS (http://vectornator.io/) --><!DOCTYPE svg PUBLIC "-//W3C//DTD SVG 1.1//EN" "http://www.w3.org/Graphics/SVG/1.1/DTD/svg11.dtd">
<svg style="fill-rule:evenodd;clip-rule:evenodd;stroke-linecap:round;stroke-linejoin:round;" xmlns:vectornator="http://vectornator.io" xmlns:xlink="http://www.w3.org/1999/xlink" xmlns="http://www.w3.org/2000/svg" xml:space="preserve" version="1.1" viewBox="0 0 1049 279">
<metadata>
<vectornator:setting key="DynamicGuides" value="1"/>
<vectornator:setting key="SnapToPoints" value="0"/>
<vectornator:setting key="OutlineMode" value="0"/>
<vectornator:setting key="RulersVisible" value="1"/>
<vectornator:setting key="CMYKEnabledKey" value="0"/>
<vectornator:setting key="SnapToEdges" value="0"/>
<vectornator:setting key="DisplayWhiteBackground" value="0"/>
<vectornator:setting key="ShowGrid" value="0"/>
<vectornator:setting key="SnapToGuides" value="1"/>
<vectornator:setting key="GridSpacing" value="1"/>
<vectornator:setting key="SnapToGrid" value="0"/>
<vectornator:setting key="Units" value="Pixels"/>
<vectornator:setting key="IsolateActiveLayer" value="0"/>
</metadata>
<defs>
<path d="M140.892+5.82217L140.892+5.82217C214.024+5.82217+273.308+65.1071+273.308+138.239L273.308+138.239C273.308+211.37+214.024+270.655+140.892+270.655L140.892+270.655C67.7603+270.655+8.47543+211.37+8.47543+138.239L8.47543+138.239C8.47543+65.1071+67.7603+5.82217+140.892+5.82217Z" id="Mask"/>
<linearGradient y1="173.48" id="LinearGradient" x1="263.927" y2="173.48" x2="1075.21" gradientUnits="userSpaceOnUse" gradientTransform="matrix(1 0 0 1 0 0)">
<stop stop-color="#5f93ff" offset="0"/>
<stop stop-color="#ff74f6" offset="0.124748"/>
<stop stop-color="#ff5c5c" offset="0.269618"/>
<stop stop-color="#ffb886" offset="0.406439"/>
<stop stop-color="#fbff7f" offset="0.557344"/>
<stop stop-color="#ceffb3" offset="0.694165"/>
<stop stop-color="#63ffa6" offset="0.857143"/>
<stop stop-color="#63fff4" offset="1"/>
</linearGradient>
<linearGradient y1="173.48" id="LinearGradient_2" x1="263.927" y2="173.48" x2="1075.21" gradientUnits="userSpaceOnUse" gradientTransform="matrix(1 0 0 1 0 0)">
<stop stop-color="#5f93ff" offset="0"/>
<stop stop-color="#ff74f6" offset="0.124748"/>
<stop stop-color="#ff5c5c" offset="0.269618"/>
<stop stop-color="#ffb886" offset="0.406439"/>
<stop stop-color="#fbff7f" offset="0.557344"/>
<stop stop-color="#ceffb3" offset="0.694165"/>
<stop stop-color="#63ffa6" offset="0.857143"/>
<stop stop-color="#63fff4" offset="1"/>
</linearGradient>
<linearGradient y1="173.48" id="LinearGradient_3" x1="263.927" y2="173.48" x2="1075.21" gradientUnits="userSpaceOnUse" gradientTransform="matrix(1 0 0 1 0 0)">
<stop stop-color="#5f93ff" offset="0"/>
<stop stop-color="#ff74f6" offset="0.124748"/>
<stop stop-color="#ff5c5c" offset="0.269618"/>
<stop stop-color="#ffb886" offset="0.406439"/>
<stop stop-color="#fbff7f" offset="0.557344"/>
<stop stop-color="#ceffb3" offset="0.694165"/>
<stop stop-color="#63ffa6" offset="0.857143"/>
<stop stop-color="#63fff4" offset="1"/>
</linearGradient>
<linearGradient y1="173.48" id="LinearGradient_4" x1="263.927" y2="173.48" x2="1075.21" gradientUnits="userSpaceOnUse" gradientTransform="matrix(1 0 0 1 0 0)">
<stop stop-color="#5f93ff" offset="0"/>
<stop stop-color="#ff74f6" offset="0.124748"/>
<stop stop-color="#ff5c5c" offset="0.269618"/>
<stop stop-color="#ffb886" offset="0.406439"/>
<stop stop-color="#fbff7f" offset="0.557344"/>
<stop stop-color="#ceffb3" offset="0.694165"/>
<stop stop-color="#63ffa6" offset="0.857143"/>
<stop stop-color="#63fff4" offset="1"/>
</linearGradient>
<linearGradient y1="173.48" id="LinearGradient_5" x1="263.927" y2="173.48" x2="1075.21" gradientUnits="userSpaceOnUse" gradientTransform="matrix(1 0 0 1 0 0)">
<stop stop-color="#5f93ff" offset="0"/>
<stop stop-color="#ff74f6" offset="0.124748"/>
<stop stop-color="#ff5c5c" offset="0.269618"/>
<stop stop-color="#ffb886" offset="0.406439"/>
<stop stop-color="#fbff7f" offset="0.557344"/>
<stop stop-color="#ceffb3" offset="0.694165"/>
<stop stop-color="#63ffa6" offset="0.857143"/>
<stop stop-color="#63fff4" offset="1"/>
</linearGradient>
<linearGradient y1="173.48" id="LinearGradient_6" x1="263.927" y2="173.48" x2="1075.21" gradientUnits="userSpaceOnUse" gradientTransform="matrix(1 0 0 1 0 0)">
<stop stop-color="#5f93ff" offset="0"/>
<stop stop-color="#ff74f6" offset="0.124748"/>
<stop stop-color="#ff5c5c" offset="0.269618"/>
<stop stop-color="#ffb886" offset="0.406439"/>
<stop stop-color="#fbff7f" offset="0.557344"/>
<stop stop-color="#ceffb3" offset="0.694165"/>
<stop stop-color="#63ffa6" offset="0.857143"/>
<stop stop-color="#63fff4" offset="1"/>
</linearGradient>
<linearGradient y1="173.48" id="LinearGradient_7" x1="263.927" y2="173.48" x2="1075.21" gradientUnits="userSpaceOnUse" gradientTransform="matrix(1 0 0 1 0 0)">
<stop stop-color="#5f93ff" offset="0"/>
<stop stop-color="#ff74f6" offset="0.124748"/>
<stop stop-color="#ff5c5c" offset="0.269618"/>
<stop stop-color="#ffb886" offset="0.406439"/>
<stop stop-color="#fbff7f" offset="0.557344"/>
<stop stop-color="#ceffb3" offset="0.694165"/>
<stop stop-color="#63ffa6" offset="0.857143"/>
<stop stop-color="#63fff4" offset="1"/>
</linearGradient>
<linearGradient y1="906.777" id="LinearGradient_8" x1="810.596" y2="906.777" x2="831.769" gradientUnits="userSpaceOnUse" gradientTransform="matrix(1 0 0 0.876471 0 97.0155)">
<stop stop-color="#a21212" offset="0"/>
<stop stop-color="#8b5f0f" offset="0.221328"/>
<stop stop-color="#3b720c" offset="0.438632"/>
<stop stop-color="#095b45" offset="0.655936"/>
<stop stop-color="#070c49" offset="0.83501"/>
<stop stop-color="#ea03cb" offset="0.993964"/>
</linearGradient>
<linearGradient y1="-48.3192" id="LinearGradient_9" x1="471.83" y2="-48.3192" x2="472.491" gradientUnits="userSpaceOnUse" gradientTransform="matrix(1 0 0 1 0 0)">
<stop stop-color="#a21212" offset="0"/>
<stop stop-color="#8b5f0f" offset="0.221328"/>
<stop stop-color="#3b720c" offset="0.438632"/>
<stop stop-color="#095b45" offset="0.655936"/>
<stop stop-color="#070c49" offset="0.83501"/>
<stop stop-color="#ea03cb" offset="0.993964"/>
</linearGradient>
<linearGradient y1="501.15" id="LinearGradient_10" x1="584.566" y2="501.15" x2="584.566" gradientUnits="userSpaceOnUse" gradientTransform="matrix(1 0 0 1 0 0)">
<stop stop-color="#a21212" offset="0"/>
<stop stop-color="#8b5f0f" offset="0.221328"/>
<stop stop-color="#3b720c" offset="0.438632"/>
<stop stop-color="#095b45" offset="0.655936"/>
<stop stop-color="#070c49" offset="0.83501"/>
<stop stop-color="#ea03cb" offset="0.993964"/>
</linearGradient>
</defs>
<g id="Layer 2" vectornator:layerName="Layer 2">
<g opacity="1" vectornator:mask="#Mask">
<use stroke="none" xlink:href="#Mask" fill-opacity="0" fill="#000000"/>
<clipPath id="ClipPath">
<use xlink:href="#Mask" fill="none" overflow="visible"/>
</clipPath>
<g clip-path="url(#ClipPath)">
<path d="M162.412+168.869L287.445+50.4322L293.1+175.78" opacity="1" fill="#5586ff"/>
<path stroke="#008c8c" stroke-opacity="0" stroke-width="0.99" d="M127.174+175.154L290.282+177.699L219.598+268.759" fill="#e600ff" stroke-linecap="round" opacity="1" stroke-linejoin="round"/>
<path stroke="#008c8c" stroke-opacity="0" stroke-width="0.99" d="M106.515+153.578L103.779+287.553L213.052+267.077" fill="#ff1100" stroke-linecap="round" opacity="1" stroke-linejoin="round"/>
<path stroke="#008c8c" stroke-opacity="0" stroke-width="0.99" d="M106.971+126.624L11.2756+221.043L100.931+281.963" fill="#ffce64" stroke-linecap="round" opacity="1" stroke-linejoin="round"/>
<path stroke="#008c8c" stroke-opacity="0" stroke-width="0.99" d="M125.29+105.783L-19.5407+105.602L13.0324+215.693" fill="#d7ff7a" stroke-linecap="round" opacity="1" stroke-linejoin="round"/>
<path stroke="#008c8c" stroke-opacity="0" stroke-width="0.99" d="M153.704+102.896L45.817+2.56543L-6.42404+102.942" fill="#7fff89" stroke-linecap="round" opacity="1" stroke-linejoin="round"/>
<path stroke="#008c8c" stroke-opacity="0" stroke-width="0.99" d="M175.867+122.365C175.867+122.365+174.389-15.9153+174.295-19.1842C174.201-22.4531+66.1176+12.1186+66.1176+12.1186" fill="#6bffc8" stroke-linecap="round" opacity="1" stroke-linejoin="round"/>
<path stroke="#008c8c" stroke-opacity="0" stroke-width="0.99" d="M178.245+149.586L288.337+42.8092L180.018-12.129" fill="#69ffff" stroke-linecap="round" opacity="1" stroke-linejoin="round"/>
</g>
<use stroke-linecap="round" stroke="#008c8c" xlink:href="#Mask" stroke-width="0.99" fill="none" stroke-linejoin="round"/>
</g>
</g>
<g id="Layer 1" vectornator:layerName="Layer 1">
<path stroke="#000000" stroke-opacity="0" stroke-width="1" d="M216.038+137.047" fill="#000000" stroke-linecap="round" opacity="1" stroke-linejoin="round" vectornator:blendMode="Difference"/>
<path stroke="#000000" stroke-opacity="0" stroke-width="1" d="M141.347+0.922673C116.473+0.922673+93.1111+7.4911+72.9092+18.9802C72.1643+19.2511+71.4872+19.6799+70.9229+20.2442C40.7893+38.0761+17.9465+66.9456+8.08262+101.323C7.17974+102.451+6.7283+103.851+6.81859+105.295C4.01967+116.243+2.66536+127.777+2.66536+139.605C2.66536+163.96+8.96293+186.87+20.0006+206.779C20.2037+208.268+20.9712+209.645+22.1675+210.571C46.3872+251.11+90.741+278.287+141.347+278.287C166.244+278.287+189.561+271.56+209.785+260.048C209.966+260.003+210.147+259.936+210.327+259.868C251.95+235.919+280.029+191.023+280.029+139.605C280.029+114.708+273.325+91.3684+261.791+71.1665C261.746+71.0537+261.678+70.9182+261.611+70.8054C261.588+70.7602+261.633+70.6699+261.611+70.6248C261.407+70.2411+261.159+69.8799+260.888+69.5413C242.898+39.0015+213.623+15.933+178.726+6.15936C178.207+5.8885+177.666+5.70792+177.101+5.61763C165.702+2.57042+153.717+0.922673+141.347+0.922673ZM141.347+12.4795C151.301+12.4795+160.962+13.5855+170.239+15.7299L170.239+111.254L84.6466+25.6615C101.711+17.1519+120.965+12.4795+141.347+12.4795ZM181.796+19.1608C209.989+28.6184+233.847+47.6466+249.331+72.4305L181.796+139.966L181.796+19.1608ZM74.1732+31.6205L141.708+99.1557L20.9035+99.1557C30.3611+70.9408+49.3667+47.0823+74.1732+31.6205ZM255.11+82.9039C263.642+99.9683+268.472+119.2+268.472+139.605C268.472+149.559+267.366+159.22+265.222+168.497L169.517+168.497L179.268+158.565C179.742+158.204+180.171+157.775+180.532+157.301L255.11+82.9039ZM17.4725+110.713L112.997+110.713L102.885+121.005C102.614+121.231+102.388+121.457+102.162+121.728L27.5848+196.125C19.0977+179.105+14.2222+159.942+14.2222+139.605C14.2222+129.65+15.3282+119.99+17.4725+110.713ZM129.249+110.713L153.265+110.713L170.239+127.687L170.239+151.523L153.265+168.497L129.249+168.497L112.455+151.703L112.455+127.506L129.249+110.713ZM100.898+139.063L100.898+152.787C100.74+153.554+100.74+154.367+100.898+155.134L100.898+260.048C72.6383+250.568+48.8475+231.427+33.3632+206.598L100.898+139.063ZM112.455+167.955L121.303+176.803C121.823+177.864+122.635+178.744+123.651+179.331L124.012+179.331C124.08+179.399+124.125+179.444+124.193+179.512L198.048+253.548C180.984+262.057+161.73+266.73+141.347+266.73C131.393+266.73+121.732+265.624+112.455+263.479L112.455+167.955ZM140.806+180.053L154.529+180.053C155.297+180.211+156.109+180.211+156.877+180.053L261.791+180.053C252.333+208.268+233.328+232.127+208.521+247.589L140.806+180.053Z" fill="#000000" stroke-linecap="round" opacity="1" stroke-linejoin="round"/>
</g>
<g id="Layer 3" vectornator:layerName="Layer 3">
<g opacity="1" vectornator:blendMode="Difference">
<path d="M330.031+189.724C338.64+189.724+346.777+187.606+354.443+183.369C362.11+179.132+368.095+173.247+372.399+165.715L395.197+188.715C390.893+196.247+384.975+202.098+377.443+206.268C369.911+210.437+361.841+212.522+353.233+212.522C346.642+212.522+340.758+211.446+335.58+209.294C330.401+207.142+325.593+204.317+321.154+200.82C316.716+197.323+312.479+193.423+308.444+189.119C304.409+184.815+300.239+180.511+295.935+176.207C300.508+180.511+305.754+183.839+311.672+186.193C317.59+188.547+323.71+189.724+330.031+189.724ZM312.075+181.049C304.005+177.417+297.549+171.936+292.707+164.606C287.865+157.275+285.444+149.172+285.444+140.295C285.444+134.242+286.621+128.526+288.975+123.146C291.329+117.766+294.489+113.058+298.457+109.023C302.425+104.988+307.065+101.794+312.378+99.4398C317.691+97.086+323.374+95.9091+329.426+95.9091C336.824+95.9091+343.784+97.5904+350.308+100.953C356.831+104.315+362.245+108.956+366.549+114.874L372.399+114.874C371.323+113.26+370.247+111.679+369.171+110.133C368.095+108.586+366.885+107.14+365.54+105.795C370.651+110.906+375.896+116.017+381.276+121.128C386.657+126.239+391.297+131.821+395.197+137.874L389.548+137.874C386.724+134.915+384.034+132.258+381.478+129.904C378.923+127.551+376.266+125.533+373.509+123.852C370.752+122.171+367.759+120.893+364.531+120.019C361.303+119.144+357.537+118.707+353.233+118.707C347.046+118.707+341.229+119.85+335.781+122.137C330.334+124.423+325.559+127.584+321.457+131.619C317.355+135.654+314.127+140.395+311.773+145.843C309.419+151.29+308.242+157.107+308.242+163.294C308.242+169.212+309.52+175.131+312.075+181.049Z" opacity="1" fill="url(#LinearGradient)"/>
<path d="M439.522+91.6723L462.32+114.672L462.32+213.531L457.478+213.531L434.68+190.733L439.522+190.733L439.522+91.6723Z" opacity="1" fill="url(#LinearGradient_2)"/>
<path d="M571.609+96.7161L594.609+119.514L559.302+119.514L559.302+213.531L536.504+190.531L536.504+96.7161L571.609+96.7161ZM519.355+119.514L496.355+96.7161L531.46+96.7161L531.46+119.514L519.355+119.514Z" opacity="1" fill="url(#LinearGradient_3)"/>
<path d="M719.432+140.295C719.432+143.657+718.827+146.784+717.617+149.676C716.406+152.568+714.725+155.09+712.573+157.242C710.421+159.394+707.899+161.075+705.007+162.286C702.115+163.496+698.988+164.101+695.626+164.101L675.047+164.101C671.819+164.101+669.6+164.101+668.389+164.101C667.179+164.101+666.203+164.135+665.464+164.202C664.724+164.27+663.749+164.303+662.538+164.303C661.328+164.303+659.109+164.303+655.88+164.303L655.88+213.531L651.038+213.531L628.039+190.733L633.082+190.733L633.082+141.303L672.828+141.303C676.325+141.303+679.519+140.631+682.411+139.286C685.303+137.941+687.791+136.159+689.876+133.939C691.961+131.72+693.575+129.097+694.718+126.071C695.861+123.045+696.433+119.85+696.433+116.488C696.433+110.973+694.886+106.064+691.792+101.76C692.196+102.163+693.474+103.441+695.626+105.593C697.778+107.745+700.064+109.998+702.485+112.352C704.906+114.706+707.092+116.858+709.042+118.808C710.992+120.758+712.102+121.801+712.371+121.935L712.573+122.339C714.859+125.298+716.574+128.055+717.718+130.611C718.861+133.166+719.432+136.394+719.432+140.295ZM656.688+119.716L633.688+96.7161L671.819+96.7161C677.871+96.7161+682.68+98.7336+686.244+102.769C689.809+106.804+691.591+111.713+691.591+117.497C691.591+118.438+691.523+119.178+691.389+119.716L656.688+119.716Z" opacity="1" fill="url(#LinearGradient_4)"/>
<path d="M764.161+91.6723L786.959+114.672L786.959+213.531L782.117+213.531L759.319+190.733L764.161+190.733L764.161+91.6723Z" opacity="1" fill="url(#LinearGradient_5)"/>
<path d="M869.414+189.724C878.023+189.724+886.16+187.606+893.826+183.369C901.493+179.132+907.478+173.247+911.782+165.715L934.58+188.715C930.276+196.247+924.358+202.098+916.826+206.268C909.294+210.437+901.224+212.522+892.616+212.522C886.025+212.522+880.141+211.446+874.963+209.294C869.784+207.142+864.976+204.317+860.537+200.82C856.099+197.323+851.862+193.423+847.827+189.119C843.792+184.815+839.622+180.511+835.318+176.207C839.891+180.511+845.137+183.839+851.055+186.193C856.973+188.547+863.093+189.724+869.414+189.724ZM851.458+181.049C843.388+177.417+836.932+171.936+832.09+164.606C827.248+157.275+824.827+149.172+824.827+140.295C824.827+134.242+826.004+128.526+828.358+123.146C830.712+117.766+833.872+113.058+837.84+109.023C841.808+104.988+846.448+101.794+851.761+99.4398C857.074+97.086+862.757+95.9091+868.809+95.9091C876.207+95.9091+883.167+97.5904+889.691+100.953C896.214+104.315+901.628+108.956+905.932+114.874L911.782+114.874C910.706+113.26+909.63+111.679+908.554+110.133C907.478+108.586+906.268+107.14+904.923+105.795C910.034+110.906+915.279+116.017+920.66+121.128C926.04+126.239+930.68+131.821+934.58+137.874L928.931+137.874C926.107+134.915+923.417+132.258+920.861+129.904C918.306+127.551+915.649+125.533+912.892+123.852C910.135+122.171+907.142+120.893+903.914+120.019C900.686+119.144+896.92+118.707+892.616+118.707C886.429+118.707+880.612+119.85+875.164+122.137C869.717+124.423+864.942+127.584+860.84+131.619C856.738+135.654+853.51+140.395+851.156+145.843C848.802+151.29+847.625+157.107+847.625+163.294C847.625+169.212+848.903+175.131+851.458+181.049Z" opacity="1" fill="url(#LinearGradient_6)"/>
<path d="M1046.49+183.671C1046.49+187.975+1045.72+191.943+1044.17+195.575C1042.63+199.206+1040.51+202.367+1037.82+205.057C1035.13+207.747+1031.97+209.866+1028.33+211.412C1024.7+212.959+1020.8+213.732+1016.63+213.732C1008.29+213.732+1001.17+210.773+995.247+204.855L975.273+184.882C977.964+187.303+981.057+189.152+984.554+190.43C988.051+191.708+991.548+192.347+995.045+192.347C999.215+192.347+1003.12+191.573+1006.75+190.027C1010.38+188.48+1013.54+186.328+1016.23+183.57C1018.92+180.813+1021.07+177.619+1022.69+173.987C1024.3+170.356+1025.11+166.522+1025.11+162.487C1025.11+158.721+1024.43+155.056+1023.09+151.492C1021.74+147.928+1019.79+144.8+1017.24+142.11L1037.61+162.286C1040.44+165.11+1042.63+168.405+1044.17+172.171C1045.72+175.938+1046.49+179.771+1046.49+183.671ZM978.098+115.076C978.098+110.368+979.746+106.4+983.041+103.172C986.336+99.9442+990.338+98.3301+995.045+98.3301C998.677+98.3301+1001.97+99.3389+1004.93+101.356C1007.89+103.374+1009.97+106.131+1011.19+109.628L1016.23+109.628C1015.69+108.014+1015.05+106.434+1014.31+104.887C1013.57+103.34+1012.66+101.962+1011.59+100.751L1032.77+121.935L1033.78+123.146C1036.47+125.836+1038.29+128.929+1039.23+132.426L1033.98+132.426L1022.48+120.926C1020.47+120.254+1018.52+119.918+1016.63+119.918C1012.87+119.918+1009.4+121.095+1006.24+123.448C1003.08+125.802+1001.1+128.862+1000.29+132.628C999.484+132.494+998.643+132.393+997.769+132.325C996.895+132.258+996.054+132.225+995.247+132.225C990.539+132.225+986.504+130.577+983.142+127.282C979.779+123.986+978.098+119.918+978.098+115.076ZM981.528+132.426C983.411+134.175+985.529+135.419+987.883+136.159C990.237+136.898+992.691+137.268+995.247+137.268C998.744+137.268+1002.01+137.941+1005.03+139.286C1008.06+140.631+1010.71+142.447+1013+144.733C1015.29+147.02+1017.07+149.676+1018.35+152.702C1019.63+155.729+1020.26+158.99+1020.26+162.487C1020.26+165.043+1019.86+167.531+1019.05+169.952L981.528+132.426ZM990.405+186.698C985.159+186.16+980.754+183.907+977.19+179.939C973.626+175.971+971.373+171.499+970.431+166.522L990.405+186.698Z" opacity="1" fill="url(#LinearGradient_7)"/>
</g>
<path d="M821.182+785.363L821.182+785.363C827.029+785.363+831.769+789.518+831.769+794.642L831.769+988.915C831.769+994.039+827.029+998.194+821.182+998.194L821.182+998.194C815.336+998.194+810.596+994.039+810.596+988.915L810.596+794.642C810.596+789.518+815.336+785.363+821.182+785.363Z" opacity="1" fill="url(#LinearGradient_8)"/>
<path d="M472.161-50.3042L472.161-50.3042C472.343-50.3042+472.491-50.1561+472.491-49.9734L472.491-46.6651C472.491-46.4824+472.343-46.3343+472.161-46.3343L472.161-46.3343C471.978-46.3343+471.83-46.4824+471.83-46.6651L471.83-49.9734C471.83-50.1561+471.978-50.3042+472.161-50.3042Z" opacity="1" fill="url(#LinearGradient_9)"/>
<path d="M584.566+501.15" opacity="1" fill="url(#LinearGradient_10)"/>
</g>
</svg>
