<?xml version="1.0" encoding="UTF-8" standalone="no"?> <!-- Created with Vectornator for iOS (http://vectornator.io/) --><!DOCTYPE svg PUBLIC "-//W3C//DTD SVG 1.1//EN" "http://www.w3.org/Graphics/SVG/1.1/DTD/svg11.dtd">
<svg height="100%" style="fill-rule:evenodd;clip-rule:evenodd;stroke-linecap:round;stroke-linejoin:round;" xmlns:xlink="http://www.w3.org/1999/xlink" xmlns="http://www.w3.org/2000/svg" xml:space="preserve" width="100%" xmlns:vectornator="http://vectornator.io" version="1.1" viewBox="0 0 1049 279">
<metadata>
<vectornator:setting key="DynamicGuides" value="1"/>
<vectornator:setting key="SnapToPoints" value="0"/>
<vectornator:setting key="OutlineMode" value="0"/>
<vectornator:setting key="RulersVisible" value="1"/>
<vectornator:setting key="CMYKEnabledKey" value="0"/>
<vectornator:setting key="SnapToEdges" value="0"/>
<vectornator:setting key="DisplayWhiteBackground" value="0"/>
<vectornator:setting key="ShowGrid" value="0"/>
<vectornator:setting key="SnapToGuides" value="1"/>
<vectornator:setting key="GridSpacing" value="1"/>
<vectornator:setting key="SnapToGrid" value="0"/>
<vectornator:setting key="Units" value="Pixels"/>
<vectornator:setting key="IsolateActiveLayer" value="0"/>
</metadata>
<defs>
<path d="M140.892+5.82217L140.892+5.82217C214.024+5.82217+273.308+65.1071+273.308+138.239L273.308+138.239C273.308+211.37+214.024+270.655+140.892+270.655L140.892+270.655C67.7603+270.655+8.47543+211.37+8.47543+138.239L8.47543+138.239C8.47543+65.1071+67.7603+5.82217+140.892+5.82217Z" id="Mask"/>
<linearGradient y1="906.777" id="LinearGradient" x1="810.596" y2="906.777" x2="831.769" gradientUnits="userSpaceOnUse" gradientTransform="matrix(1 0 0 0.876471 0 97.0155)">
<stop stop-color="#a21212" offset="0"/>
<stop stop-color="#8b5f0f" offset="0.221328"/>
<stop stop-color="#3b720c" offset="0.438632"/>
<stop stop-color="#095b45" offset="0.655936"/>
<stop stop-color="#070c49" offset="0.83501"/>
<stop stop-color="#ea03cb" offset="0.993964"/>
</linearGradient>
<linearGradient y1="-48.3192" id="LinearGradient_2" x1="471.83" y2="-48.3192" x2="472.491" gradientUnits="userSpaceOnUse" gradientTransform="matrix(1 0 0 1 0 0)">
<stop stop-color="#a21212" offset="0"/>
<stop stop-color="#8b5f0f" offset="0.221328"/>
<stop stop-color="#3b720c" offset="0.438632"/>
<stop stop-color="#095b45" offset="0.655936"/>
<stop stop-color="#070c49" offset="0.83501"/>
<stop stop-color="#ea03cb" offset="0.993964"/>
</linearGradient>
<linearGradient y1="501.15" id="LinearGradient_3" x1="584.566" y2="501.15" x2="584.566" gradientUnits="userSpaceOnUse" gradientTransform="matrix(1 0 0 1 0 0)">
<stop stop-color="#a21212" offset="0"/>
<stop stop-color="#8b5f0f" offset="0.221328"/>
<stop stop-color="#3b720c" offset="0.438632"/>
<stop stop-color="#095b45" offset="0.655936"/>
<stop stop-color="#070c49" offset="0.83501"/>
<stop stop-color="#ea03cb" offset="0.993964"/>
</linearGradient>
</defs>
<g id="Layer 2" vectornator:layerName="Layer 2" visibility="hidden">
<g opacity="1" vectornator:mask="#Mask">
<use stroke="none" xlink:href="#Mask" fill-opacity="0" fill="#ffffff"/>
<clipPath id="ClipPath">
<use xlink:href="#Mask" fill="none" overflow="visible"/>
</clipPath>
<g clip-path="url(#ClipPath)">
<path d="M162.412+168.869L287.445+50.4322L293.1+175.78" opacity="1" fill="#5586ff"/>
<path stroke="#008c8c" stroke-opacity="0" stroke-width="0.99" d="M127.174+175.154L290.282+177.699L219.598+268.759" fill="#e600ff" stroke-linecap="round" opacity="1" stroke-linejoin="round"/>
<path stroke="#008c8c" stroke-opacity="0" stroke-width="0.99" d="M106.515+153.578L103.779+287.553L213.052+267.077" fill="#ff1100" stroke-linecap="round" opacity="1" stroke-linejoin="round"/>
<path stroke="#008c8c" stroke-opacity="0" stroke-width="0.99" d="M106.971+126.624L11.2756+221.043L100.931+281.963" fill="#ffce64" stroke-linecap="round" opacity="1" stroke-linejoin="round"/>
<path stroke="#008c8c" stroke-opacity="0" stroke-width="0.99" d="M125.29+105.783L-19.5407+105.602L13.0324+215.693" fill="#d7ff7a" stroke-linecap="round" opacity="1" stroke-linejoin="round"/>
<path stroke="#008c8c" stroke-opacity="0" stroke-width="0.99" d="M153.704+102.896L45.817+2.56543L-6.42404+102.942" fill="#7fff89" stroke-linecap="round" opacity="1" stroke-linejoin="round"/>
<path stroke="#008c8c" stroke-opacity="0" stroke-width="0.99" d="M175.867+122.365C175.867+122.365+174.389-15.9153+174.295-19.1842C174.201-22.4531+66.1176+12.1186+66.1176+12.1186" fill="#6bffc8" stroke-linecap="round" opacity="1" stroke-linejoin="round"/>
<path stroke="#008c8c" stroke-opacity="0" stroke-width="0.99" d="M178.245+149.586L288.337+42.8092L180.018-12.129" fill="#69ffff" stroke-linecap="round" opacity="1" stroke-linejoin="round"/>
</g>
<use stroke-linecap="round" stroke="#008c8c" xlink:href="#Mask" stroke-width="0.99" fill="none" stroke-linejoin="round"/>
</g>
</g>
<g id="Layer 1" vectornator:layerName="Layer 1">
<path stroke="#000000" stroke-opacity="0" stroke-width="1" d="M216.038+137.047" fill="#ffffff" stroke-linecap="round" opacity="1" stroke-linejoin="round" vectornator:blendMode="Difference"/>
<path stroke="#000000" stroke-opacity="0" stroke-width="1" d="M141.347+0.922673C116.473+0.922673+93.1111+7.4911+72.9092+18.9802C72.1643+19.2511+71.4872+19.6799+70.9229+20.2442C40.7893+38.0761+17.9465+66.9456+8.08262+101.323C7.17974+102.451+6.7283+103.851+6.81859+105.295C4.01967+116.243+2.66536+127.777+2.66536+139.605C2.66536+163.96+8.96293+186.87+20.0006+206.779C20.2037+208.268+20.9712+209.645+22.1675+210.571C46.3872+251.11+90.741+278.287+141.347+278.287C166.244+278.287+189.561+271.56+209.785+260.048C209.966+260.003+210.147+259.936+210.327+259.868C251.95+235.919+280.029+191.023+280.029+139.605C280.029+114.708+273.325+91.3684+261.791+71.1665C261.746+71.0537+261.678+70.9182+261.611+70.8054C261.588+70.7602+261.633+70.6699+261.611+70.6248C261.407+70.2411+261.159+69.8799+260.888+69.5413C242.898+39.0015+213.623+15.933+178.726+6.15936C178.207+5.8885+177.666+5.70792+177.101+5.61763C165.702+2.57042+153.717+0.922673+141.347+0.922673ZM141.347+12.4795C151.301+12.4795+160.962+13.5855+170.239+15.7299L170.239+111.254L84.6466+25.6615C101.711+17.1519+120.965+12.4795+141.347+12.4795ZM181.796+19.1608C209.989+28.6184+233.847+47.6466+249.331+72.4305L181.796+139.966L181.796+19.1608ZM74.1732+31.6205L141.708+99.1557L20.9035+99.1557C30.3611+70.9408+49.3667+47.0823+74.1732+31.6205ZM255.11+82.9039C263.642+99.9683+268.472+119.2+268.472+139.605C268.472+149.559+267.366+159.22+265.222+168.497L169.517+168.497L179.268+158.565C179.742+158.204+180.171+157.775+180.532+157.301L255.11+82.9039ZM17.4725+110.713L112.997+110.713L102.885+121.005C102.614+121.231+102.388+121.457+102.162+121.728L27.5848+196.125C19.0977+179.105+14.2222+159.942+14.2222+139.605C14.2222+129.65+15.3282+119.99+17.4725+110.713ZM129.249+110.713L153.265+110.713L170.239+127.687L170.239+151.523L153.265+168.497L129.249+168.497L112.455+151.703L112.455+127.506L129.249+110.713ZM100.898+139.063L100.898+152.787C100.74+153.554+100.74+154.367+100.898+155.134L100.898+260.048C72.6383+250.568+48.8475+231.427+33.3632+206.598L100.898+139.063ZM112.455+167.955L121.303+176.803C121.823+177.864+122.635+178.744+123.651+179.331L124.012+179.331C124.08+179.399+124.125+179.444+124.193+179.512L198.048+253.548C180.984+262.057+161.73+266.73+141.347+266.73C131.393+266.73+121.732+265.624+112.455+263.479L112.455+167.955ZM140.806+180.053L154.529+180.053C155.297+180.211+156.109+180.211+156.877+180.053L261.791+180.053C252.333+208.268+233.328+232.127+208.521+247.589L140.806+180.053Z" fill="#ffffff" stroke-linecap="round" opacity="1" stroke-linejoin="round"/>
</g>
<g id="Layer 3" vectornator:layerName="Layer 3">
<g opacity="1" vectornator:blendMode="Difference">
<path d="M328.031+189.724C336.64+189.724+344.777+187.606+352.443+183.369C360.11+179.132+366.095+173.247+370.399+165.715L393.197+188.715C388.893+196.247+382.975+202.098+375.443+206.268C367.911+210.437+359.841+212.522+351.233+212.522C344.642+212.522+338.758+211.446+333.58+209.294C328.401+207.142+323.593+204.317+319.154+200.82C314.716+197.323+310.479+193.423+306.444+189.119C302.409+184.815+298.239+180.511+293.935+176.207C298.508+180.511+303.754+183.839+309.672+186.193C315.59+188.547+321.71+189.724+328.031+189.724ZM310.075+181.049C302.005+177.417+295.549+171.936+290.707+164.606C285.865+157.275+283.444+149.172+283.444+140.295C283.444+134.242+284.621+128.526+286.975+123.146C289.329+117.766+292.489+113.058+296.457+109.023C300.425+104.988+305.065+101.794+310.378+99.4398C315.691+97.086+321.374+95.9091+327.426+95.9091C334.824+95.9091+341.784+97.5904+348.308+100.953C354.831+104.315+360.245+108.956+364.549+114.874L370.399+114.874C369.323+113.26+368.247+111.679+367.171+110.133C366.095+108.586+364.885+107.14+363.54+105.795C368.651+110.906+373.896+116.017+379.276+121.128C384.657+126.239+389.297+131.821+393.197+137.874L387.548+137.874C384.724+134.915+382.034+132.258+379.478+129.904C376.923+127.551+374.266+125.533+371.509+123.852C368.752+122.171+365.759+120.893+362.531+120.019C359.303+119.144+355.537+118.707+351.233+118.707C345.046+118.707+339.229+119.85+333.781+122.137C328.334+124.423+323.559+127.584+319.457+131.619C315.355+135.654+312.127+140.395+309.773+145.843C307.419+151.29+306.242+157.107+306.242+163.294C306.242+169.212+307.52+175.131+310.075+181.049Z" opacity="1" fill="#ffffff"/>
<path d="M437.522+91.6723L460.32+114.672L460.32+213.531L455.478+213.531L432.68+190.733L437.522+190.733L437.522+91.6723Z" opacity="1" fill="#ffffff"/>
<path d="M569.609+96.7161L592.609+119.514L557.302+119.514L557.302+213.531L534.504+190.531L534.504+96.7161L569.609+96.7161ZM517.355+119.514L494.355+96.7161L529.46+96.7161L529.46+119.514L517.355+119.514Z" opacity="1" fill="#ffffff"/>
<path d="M717.432+140.295C717.432+143.657+716.827+146.784+715.617+149.676C714.406+152.568+712.725+155.09+710.573+157.242C708.421+159.394+705.899+161.075+703.007+162.286C700.115+163.496+696.988+164.101+693.626+164.101L673.047+164.101C669.819+164.101+667.6+164.101+666.389+164.101C665.179+164.101+664.203+164.135+663.464+164.202C662.724+164.27+661.749+164.303+660.538+164.303C659.328+164.303+657.109+164.303+653.88+164.303L653.88+213.531L649.038+213.531L626.039+190.733L631.082+190.733L631.082+141.303L670.828+141.303C674.325+141.303+677.519+140.631+680.411+139.286C683.303+137.941+685.791+136.159+687.876+133.939C689.961+131.72+691.575+129.097+692.718+126.071C693.861+123.045+694.433+119.85+694.433+116.488C694.433+110.973+692.886+106.064+689.792+101.76C690.196+102.163+691.474+103.441+693.626+105.593C695.778+107.745+698.064+109.998+700.485+112.352C702.906+114.706+705.092+116.858+707.042+118.808C708.992+120.758+710.102+121.801+710.371+121.935L710.573+122.339C712.859+125.298+714.574+128.055+715.718+130.611C716.861+133.166+717.432+136.394+717.432+140.295ZM654.688+119.716L631.688+96.7161L669.819+96.7161C675.871+96.7161+680.68+98.7336+684.244+102.769C687.809+106.804+689.591+111.713+689.591+117.497C689.591+118.438+689.523+119.178+689.389+119.716L654.688+119.716Z" opacity="1" fill="#ffffff"/>
<path d="M762.161+91.6723L784.959+114.672L784.959+213.531L780.117+213.531L757.319+190.733L762.161+190.733L762.161+91.6723Z" opacity="1" fill="#ffffff"/>
<path d="M867.414+189.724C876.023+189.724+884.16+187.606+891.826+183.369C899.493+179.132+905.478+173.247+909.782+165.715L932.58+188.715C928.276+196.247+922.358+202.098+914.826+206.268C907.294+210.437+899.224+212.522+890.616+212.522C884.025+212.522+878.141+211.446+872.963+209.294C867.784+207.142+862.976+204.317+858.537+200.82C854.099+197.323+849.862+193.423+845.827+189.119C841.792+184.815+837.622+180.511+833.318+176.207C837.891+180.511+843.137+183.839+849.055+186.193C854.973+188.547+861.093+189.724+867.414+189.724ZM849.458+181.049C841.388+177.417+834.932+171.936+830.09+164.606C825.248+157.275+822.827+149.172+822.827+140.295C822.827+134.242+824.004+128.526+826.358+123.146C828.712+117.766+831.872+113.058+835.84+109.023C839.808+104.988+844.448+101.794+849.761+99.4398C855.074+97.086+860.757+95.9091+866.809+95.9091C874.207+95.9091+881.167+97.5904+887.691+100.953C894.214+104.315+899.628+108.956+903.932+114.874L909.782+114.874C908.706+113.26+907.63+111.679+906.554+110.133C905.478+108.586+904.268+107.14+902.923+105.795C908.034+110.906+913.279+116.017+918.66+121.128C924.04+126.239+928.68+131.821+932.58+137.874L926.931+137.874C924.107+134.915+921.417+132.258+918.861+129.904C916.306+127.551+913.649+125.533+910.892+123.852C908.135+122.171+905.142+120.893+901.914+120.019C898.686+119.144+894.92+118.707+890.616+118.707C884.429+118.707+878.612+119.85+873.164+122.137C867.717+124.423+862.942+127.584+858.84+131.619C854.738+135.654+851.51+140.395+849.156+145.843C846.802+151.29+845.625+157.107+845.625+163.294C845.625+169.212+846.903+175.131+849.458+181.049Z" opacity="1" fill="#ffffff"/>
<path d="M1044.49+183.671C1044.49+187.975+1043.72+191.943+1042.17+195.575C1040.63+199.206+1038.51+202.367+1035.82+205.057C1033.13+207.747+1029.97+209.866+1026.33+211.412C1022.7+212.959+1018.8+213.732+1014.63+213.732C1006.29+213.732+999.165+210.773+993.247+204.855L973.273+184.882C975.964+187.303+979.057+189.152+982.554+190.43C986.051+191.708+989.548+192.347+993.045+192.347C997.215+192.347+1001.12+191.573+1004.75+190.027C1008.38+188.48+1011.54+186.328+1014.23+183.57C1016.92+180.813+1019.07+177.619+1020.69+173.987C1022.3+170.356+1023.11+166.522+1023.11+162.487C1023.11+158.721+1022.43+155.056+1021.09+151.492C1019.74+147.928+1017.79+144.8+1015.24+142.11L1035.61+162.286C1038.44+165.11+1040.63+168.405+1042.17+172.171C1043.72+175.938+1044.49+179.771+1044.49+183.671ZM976.098+115.076C976.098+110.368+977.746+106.4+981.041+103.172C984.336+99.9442+988.338+98.3301+993.045+98.3301C996.677+98.3301+999.972+99.3389+1002.93+101.356C1005.89+103.374+1007.97+106.131+1009.19+109.628L1014.23+109.628C1013.69+108.014+1013.05+106.434+1012.31+104.887C1011.57+103.34+1010.66+101.962+1009.59+100.751L1030.77+121.935L1031.78+123.146C1034.47+125.836+1036.29+128.929+1037.23+132.426L1031.98+132.426L1020.48+120.926C1018.47+120.254+1016.52+119.918+1014.63+119.918C1010.87+119.918+1007.4+121.095+1004.24+123.448C1001.08+125.802+999.098+128.862+998.291+132.628C997.484+132.494+996.643+132.393+995.769+132.325C994.895+132.258+994.054+132.225+993.247+132.225C988.539+132.225+984.504+130.577+981.142+127.282C977.779+123.986+976.098+119.918+976.098+115.076ZM979.528+132.426C981.411+134.175+983.529+135.419+985.883+136.159C988.237+136.898+990.691+137.268+993.247+137.268C996.744+137.268+1000.01+137.941+1003.03+139.286C1006.06+140.631+1008.71+142.447+1011+144.733C1013.29+147.02+1015.07+149.676+1016.35+152.702C1017.63+155.729+1018.26+158.99+1018.26+162.487C1018.26+165.043+1017.86+167.531+1017.05+169.952L979.528+132.426ZM988.405+186.698C983.159+186.16+978.754+183.907+975.19+179.939C971.626+175.971+969.373+171.499+968.431+166.522L988.405+186.698Z" opacity="1" fill="#ffffff"/>
</g>
<path d="M821.182+785.363L821.182+785.363C827.029+785.363+831.769+789.518+831.769+794.642L831.769+988.915C831.769+994.039+827.029+998.194+821.182+998.194L821.182+998.194C815.336+998.194+810.596+994.039+810.596+988.915L810.596+794.642C810.596+789.518+815.336+785.363+821.182+785.363Z" opacity="1" fill="url(#LinearGradient)"/>
<path d="M472.161-50.3042L472.161-50.3042C472.343-50.3042+472.491-50.1561+472.491-49.9734L472.491-46.6651C472.491-46.4824+472.343-46.3343+472.161-46.3343L472.161-46.3343C471.978-46.3343+471.83-46.4824+471.83-46.6651L471.83-49.9734C471.83-50.1561+471.978-50.3042+472.161-50.3042Z" opacity="1" fill="url(#LinearGradient_2)"/>
<path d="M584.566+501.15" opacity="1" fill="url(#LinearGradient_3)"/>
</g>
</svg>
